# xmcd CD database file
#
# Track frame offsets:
#	150
#	15420
#	29531
#	45579
#	61134
#	82587
#	95535
#	109725
#
# Disc length: 1650 seconds
#
# Revision: 0
# Processed by: cddbd v1.5.2PL0 Copyright (c) Steve Scherf et al.
# Submitted via: CDex 1.51
#
DISCID=51067008
DTITLE=Jutta Hipp - The Jutta Hipp Quintet
DYEAR=1900
DGENRE=Jazz
TTITLE0=Cleopatra
TTITLE1=Don't Worry 'Bout Me
TTITLE2=Ghost of a Chance
TTITLE3=Mon Petit
TTITLE4=What's New
TTITLE5=Blue Skies
TTITLE6=Laura
TTITLE7=Variations
EXTD=
EXTT0=
EXTT1=
EXTT2=
EXTT3=
EXTT4=
EXTT5=
EXTT6=
EXTT7=
PLAYORDER=
